<svg width="512" height="512" viewBox="0 0 512 512" fill="none" xmlns="http://www.w3.org/2000/svg">
<path d="M243.5 61C286 61 282 72 277 78C272 84 268.5 85.5 259.481 94.1466C250.461 102.793 236.5 112.5 224 132C211.5 151.5 188.507 190.753 179.5 211.5C160.839 254.484 163.519 252.147 151 300.5C138.481 348.853 143.961 394.793 148.981 411.147C154 427.5 142 420 142 420C93 375.5 83 342 83 300.5C83 259 95.5195 209 123.5 157C151.481 105 201 61 243.5 61Z" fill="#93C572"/>
<path d="M250.683 450.914C207.183 450.914 183.817 442.372 193.5 431.393C203.183 420.414 230.183 419.924 241.683 413.414C253.183 406.903 269.262 393.56 288.183 375.414C307.103 357.267 323.103 335.267 334.603 318.267C360.172 280.468 363.103 263.267 372.103 211.267C381.103 159.267 352.5 109.8 352.5 92.5335C352.5 75.2667 372.103 85.2667 372.103 85.2667C395.227 98 429.872 161.767 428.103 226.767C426.334 291.767 423.165 320.267 385.603 375.414C348.041 430.56 294.183 450.914 250.683 450.914Z" fill="#93C572"/>
<path d="M330.5 152C338 155.75 293 272.712 289.392 272.712C285.785 272.712 269.748 257.211 257.5 247.5C244.943 237.545 227.778 228.709 226.139 222.855C224.5 217 323 148.25 330.5 152Z" fill="#8B5CF6"/>
<path d="M179.5 347.5C184.203 352.5 285.501 285 285.501 279.826C285.501 274.652 265.013 265.458 252.195 256.513C239.054 247.342 225.663 233.436 219.584 233.547C213.506 233.657 174.797 342.5 179.5 347.5Z" fill="#93C572"/>
</svg>
